<svg width="216" height="33" viewBox="0 0 216 33" fill="none" xmlns="http://www.w3.org/2000/svg">
<path d="M-2.78505e-06 31.8572L-2.84134e-06 32.5012L11.3858 32.5012C11.3858 32.5012 203.008 32.5001 198 32.5001C204.172 32.5001 214 32.5001 216 21.4886L216 14.7799L216 1.696e-05L3.92937 0.00108901L3.92937 19.2417L3.92937 21.1911C3.92937 22.4029 3.92937 23.8723 3.92937 25.6227C3.92937 25.7046 3.92937 25.7924 3.92937 25.8744L3.92937 26.0676C3.92081 26.1378 3.91225 26.2139 3.90369 26.2842C3.90369 26.3544 3.89513 26.4305 3.88657 26.5008C3.87801 26.571 3.86945 26.6413 3.86089 26.7115C3.85233 26.7993 3.8352 26.8871 3.81808 26.9749C3.81808 26.9984 3.81808 27.0218 3.80952 27.0452C3.80952 27.0745 3.80096 27.0979 3.7924 27.1272C3.77528 27.2091 3.75816 27.2911 3.74104 27.373C3.74104 27.3847 3.74104 27.3964 3.74104 27.4082C3.74104 27.4199 3.74104 27.4257 3.73247 27.4374C3.71535 27.5135 3.69823 27.5838 3.67255 27.654C3.67255 27.654 3.67255 27.654 3.67255 27.6599C3.65543 27.7184 3.63831 27.777 3.62119 27.8414C3.5955 27.9175 3.56982 27.9936 3.54414 28.0697C3.51846 28.1458 3.49277 28.2219 3.45853 28.2921C3.43285 28.3624 3.40717 28.4268 3.37292 28.497C3.33868 28.5731 3.30444 28.6492 3.2702 28.7253C3.2702 28.737 3.2702 28.7487 3.25307 28.7546C3.23595 28.7956 3.21027 28.8365 3.19315 28.8834C3.15891 28.9419 3.13322 29.0005 3.09898 29.059C3.09898 29.0649 3.09042 29.0707 3.09042 29.0766C3.04762 29.1585 2.99625 29.2405 2.94489 29.3224C2.89352 29.4044 2.84216 29.4863 2.78223 29.5683C2.73943 29.6385 2.67951 29.7088 2.62814 29.7732C2.61958 29.7908 2.60246 29.8083 2.58534 29.8259C2.53397 29.8961 2.47405 29.9664 2.41412 30.0308C2.3542 30.1069 2.28571 30.1771 2.21723 30.2532C2.1573 30.3235 2.08025 30.3996 2.01177 30.464C1.94328 30.5342 1.8748 30.5986 1.79775 30.6689C1.72926 30.7391 1.65222 30.8035 1.57517 30.862C1.34403 31.0552 1.09577 31.2309 0.838949 31.3948C0.813266 31.4123 0.787584 31.4299 0.761902 31.4416C0.496519 31.6055 0.248258 31.7402 -2.78505e-06 31.8572Z" fill="#D4E167"/>
</svg>
