<svg width="288" height="42" viewBox="0 0 288 42" fill="none" xmlns="http://www.w3.org/2000/svg">
<path d="M0 41.0341V42L274.5 41.5C280.813 41.5 283.685 41.3333 285.5 39.6147C285.986 39.1544 286.359 38.6186 286.644 38C287.827 35.4319 287.5 31.436 287.5 25.4827V15.4196V0H3.5L3.48151 22.1108V25.0349C3.48151 26.8526 3.48151 29.0567 3.48151 31.6822C3.48151 31.8051 3.48151 31.9369 3.48151 32.0598V32.3496C3.47391 32.4549 3.4663 32.5691 3.4587 32.6745C3.4587 32.7798 3.4511 32.894 3.4435 32.9994C3.4359 33.1047 3.4283 33.2101 3.4207 33.3155C3.41309 33.4472 3.39789 33.5789 3.38269 33.7106C3.38269 33.7458 3.38269 33.7809 3.37509 33.816C3.37509 33.8599 3.36748 33.895 3.35988 33.9389C3.34468 34.0619 3.32948 34.1848 3.31427 34.3078C3.31427 34.3253 3.31427 34.3429 3.31427 34.3604C3.31427 34.378 3.31427 34.3868 3.30667 34.4043C3.29147 34.5185 3.27627 34.6239 3.25346 34.7292C3.25346 34.7292 3.25346 34.7292 3.25346 34.738C3.23826 34.8258 3.22305 34.9137 3.20785 35.0102C3.18505 35.1244 3.16224 35.2385 3.13944 35.3527C3.11663 35.4669 3.09383 35.581 3.06342 35.6864C3.04062 35.7918 3.01781 35.8884 2.98741 35.9937C2.957 36.1079 2.92659 36.222 2.89619 36.3362C2.89619 36.3538 2.89619 36.3713 2.88099 36.3801C2.86578 36.4416 2.84298 36.503 2.82777 36.5733C2.79737 36.6611 2.77456 36.7489 2.74416 36.8367C2.74416 36.8455 2.73656 36.8543 2.73656 36.8631C2.69855 36.986 2.65294 37.1089 2.60733 37.2319C2.56172 37.3548 2.51611 37.4777 2.4629 37.6007C2.42489 37.7148 2.37168 37.8202 2.32607 37.9168C2.31847 37.9431 2.30327 37.9695 2.28806 37.9958C2.24246 38.1012 2.18924 38.2066 2.13603 38.3032C2.08282 38.4173 2.02201 38.5227 1.9612 38.6368C1.90799 38.7422 1.83957 38.8564 1.77876 38.953C1.71795 39.0583 1.65714 39.1549 1.58872 39.2603C1.52791 39.3657 1.4595 39.4623 1.39108 39.5501C1.18584 39.8398 0.965396 40.1033 0.73735 40.3492C0.714545 40.3755 0.691741 40.4018 0.668936 40.4194C0.44089 40.6565 0.220445 40.8585 0 41.0341Z" fill="#482F8F"/>
</svg>
