<svg width="127" height="37" viewBox="0 0 127 37" fill="none" xmlns="http://www.w3.org/2000/svg">
<path d="M0 36.1491V37H112.816C118.564 37 127 33.6736 127 22.4491V13.5839V0H3.6517V19.4786V22.0546C3.6517 23.6559 3.6517 25.5975 3.6517 27.9105C3.6517 28.0188 3.6517 28.1348 3.6517 28.2432V28.4984C3.64373 28.5913 3.63576 28.6918 3.62779 28.7847C3.62779 28.8775 3.61981 28.978 3.61184 29.0709C3.60387 29.1637 3.59589 29.2565 3.58792 29.3494C3.57995 29.4654 3.564 29.5814 3.54805 29.6975C3.54805 29.7284 3.54805 29.7594 3.54008 29.7903C3.54008 29.829 3.53211 29.8599 3.52413 29.8986C3.50819 30.0069 3.49224 30.1152 3.4763 30.2235C3.4763 30.239 3.4763 30.2544 3.4763 30.2699C3.4763 30.2854 3.47629 30.2931 3.46832 30.3086C3.45238 30.4092 3.43643 30.502 3.41251 30.5948C3.41251 30.5948 3.41251 30.5948 3.41251 30.6026C3.39656 30.6799 3.38062 30.7573 3.36467 30.8424C3.34075 30.9429 3.31683 31.0435 3.29291 31.144C3.26899 31.2446 3.24507 31.3452 3.21318 31.438C3.18926 31.5308 3.16534 31.6159 3.13345 31.7088C3.10156 31.8093 3.06966 31.9099 3.03777 32.0105C3.03777 32.0259 3.03777 32.0414 3.02183 32.0491C3.00588 32.1033 2.98196 32.1574 2.96601 32.2193C2.93412 32.2967 2.9102 32.374 2.87831 32.4514C2.87831 32.4591 2.87034 32.4669 2.87034 32.4746C2.83047 32.5829 2.78263 32.6912 2.73479 32.7995C2.68695 32.9078 2.63911 33.0161 2.5833 33.1244C2.54344 33.225 2.48762 33.3178 2.43979 33.4029C2.43181 33.4261 2.41587 33.4493 2.39992 33.4725C2.35208 33.5653 2.29627 33.6582 2.24046 33.7433C2.18464 33.8438 2.12086 33.9366 2.05707 34.0372C2.00126 34.13 1.9295 34.2306 1.86572 34.3157C1.80193 34.4085 1.73815 34.4936 1.66639 34.5864C1.6026 34.6793 1.53085 34.7644 1.45909 34.8417C1.24381 35.097 1.01259 35.3291 0.773396 35.5457C0.749477 35.5689 0.725557 35.5921 0.701638 35.6076C0.462443 35.8164 0.231221 35.9943 0 36.1491Z" fill="#D4E167"/>
</svg>
